PathFileType	4	(X/Y/Z)	C:/Users/Carlo/Dropbox/Carlos/SARAH/CongressoMarcha2025/WorkshopOpenSim/C3D/Caso01/Walking 02.c3d.trc
DataRate	CameraRate	NumFrames	NumMarkers	Units	OrigDataRate	OrigDataStartFrame	OrigNumFrames
100.000000	100.000000	4	85	mm	100.000000	227	364
Frame#	Time	PELO			PELA			PELL			PELP			LFEO			LFEA			LFEL			LFEP			LTIO			LTIA			LTIL			LTIP			LFOO			LFOA			LFOL			LFOP			LTOO			LTOA			LTOL			LTOP			RFEO			RFEA			RFEL			RFEP			RTIO			RTIA			RTIL			RTIP			RFOO			RFOA			RFOL			RFOP			RTOO			RTOA			RTOL			RTOP			LASI			RASI			RPSI			LTHI			LKNE			LTIB			LANK			LHEE			LTOE			RTHI			RKNE			RTIB			RANK			RHEE			RTOE			LPSI			LHipAngles			LKneeAngles			LAbsAnkleAngle			LAnkleAngles			RHipAngles			RKneeAngles			RAnkleAngles			RAbsAnkleAngle			LPelvisAngles			RPelvisAngles			LFootProgressAngles			RFootProgressAngles			LHipPower			LKneePower			LAnklePower			RHipPower			RKneePower			RAnklePower			LGroundReactionForce			LNormalisedGRF			LAnkleForce			RAnkleForce			RKneeForce			LKneeForce			RHipForce			LHipForce			LGroundReactionMoment			LAnkleMoment			RAnkleMoment			RKneeMoment			LKneeMoment			RHipMoment			LHipMoment			
		X1	Y1	Z1	X2	Y2	Z2	X3	Y3	Z3	X4	Y4	Z4	X5	Y5	Z5	X6	Y6	Z6	X7	Y7	Z7	X8	Y8	Z8	X9	Y9	Z9	X10	Y10	Z10	X11	Y11	Z11	X12	Y12	Z12	X13	Y13	Z13	X14	Y14	Z14	X15	Y15	Z15	X16	Y16	Z16	X17	Y17	Z17	X18	Y18	Z18	X19	Y19	Z19	X20	Y20	Z20	X21	Y21	Z21	X22	Y22	Z22	X23	Y23	Z23	X24	Y24	Z24	X25	Y25	Z25	X26	Y26	Z26	X27	Y27	Z27	X28	Y28	Z28	X29	Y29	Z29	X30	Y30	Z30	X31	Y31	Z31	X32	Y32	Z32	X33	Y33	Z33	X34	Y34	Z34	X35	Y35	Z35	X36	Y36	Z36	X37	Y37	Z37	X38	Y38	Z38	X39	Y39	Z39	X40	Y40	Z40	X41	Y41	Z41	X42	Y42	Z42	X43	Y43	Z43	X44	Y44	Z44	X45	Y45	Z45	X46	Y46	Z46	X47	Y47	Z47	X48	Y48	Z48	X49	Y49	Z49	X50	Y50	Z50	X51	Y51	Z51	X52	Y52	Z52	X53	Y53	Z53	X54	Y54	Z54	X55	Y55	Z55	X56	Y56	Z56	X57	Y57	Z57	X58	Y58	Z58	X59	Y59	Z59	X60	Y60	Z60	X61	Y61	Z61	X62	Y62	Z62	X63	Y63	Z63	X64	Y64	Z64	X65	Y65	Z65	X66	Y66	Z66	X67	Y67	Z67	X68	Y68	Z68	X69	Y69	Z69	X70	Y70	Z70	X71	Y71	Z71	X72	Y72	Z72	X73	Y73	Z73	X74	Y74	Z74	X75	Y75	Z75	X76	Y76	Z76	X77	Y77	Z77	X78	Y78	Z78	X79	Y79	Z79	X80	Y80	Z80	X81	Y81	Z81	X82	Y82	Z82	X83	Y83	Z83	X84	Y84	Z84	X85	Y85	Z85	

228	2.27	125.6439819335938	953.9751586914067	-1273.153564453125	124.1816482543946	956.8115234375005	-1402.04052734375	-3.268615722656252	952.748413085938	-1271.717895507813	124.4491882324219	1082.864624023438	-1270.303588867188	9.482298851013187	550.0281372070315	-1408.27685546875	40.85624313354494	682.8223876953127	-1814.707885742188	-414.9551086425784	608.980407714844	-1421.779174804688	61.18682098388675	953.382934570313	-1272.496459960938	16.53987121582032	259.6719360351564	-1087.078247070313	84.63311004638675	-41.49423217773439	-1360.821655273438	-390.3892211914065	204.7039794921876	-1127.826782226563	9.814786911010746	536.3499755859377	-1393.145751953125	-0.2056098729372026	146.5682525634766	-1193.06396484375	3.089274168014528	309.103485107422	-1337.918701171875	-217.8970947265626	151.2409973144532	-1192.772583007813	3.120522737503054	291.3850708007814	-1030.49560546875	-1.31432330608368	98.29595184326178	-1247.25341796875	-0.2160604000091554	152.474349975586	-1295.538330078125	-73.87813568115237	99.85351562500006	-1247.15625	-0.2055982351303102	146.5682525634766	-1193.06396484375	169.1923065185547	531.371765136719	-1324.787719726563	149.718978881836	583.3052978515627	-1747.935424804688	-256.6173706054689	549.7772216796877	-1302.932983398438	190.1011657714844	954.5673217773442	-1273.810546875	148.4425201416016	96.89621734619146	-1231.7705078125	159.3948669433594	7.494049072265629	-1646.917236328126	-275.7589721679689	113.9720993041993	-1246.639038085938	168.2593078613282	511.8361511230471	-1320.605346679688	171.2778625488282	79.73163604736331	-1384.87841796875	177.4686279296876	297.1456298828126	-1388.213256835938	-45.78294372558595	85.71403503417972	-1397.806884765625	158.4478454589844	83.42710876464847	-1167.7607421875	175.5545501708985	78.49981689453128	-1457.2509765625	177.6180877685547	150.9711914062501	-1458.362548828125	103.2009429931641	80.49390411376956	-1461.560424804688	171.2779235839844	79.73164367675784	-1384.87841796875	16.55451202392579	1051.020385742188	-1316.931396484375	231.8651580810548	1053.0693359375	-1319.329223632813	176.0914916992188	1048.064086914063	-1122.453735351563	-70.63858032226565	764.8206787109377	-1344.281982421875	-47.93770599365236	558.0034790039065	-1410.103515625	-50.56605911254886	386.5844421386721	-1243.396850585938	-28.33022499084474	253.6108551025392	-1091.5712890625	17.92541885375977	262.2087707519532	-1011.652465820313	8.925526618957523	119.3639755249024	-1184.89013671875	297.3331909179689	803.6772460937505	-1297.264282226563	226.0643920898439	528.913513183594	-1327.706665039063	235.7483673095704	371.6114196777345	-1288.627319335938	194.8764190673829	95.02705383300784	-1230.142944335938	146.8324890136719	64.38696289062503	-1156.796142578125	161.4173583984376	61.58174514770511	-1382.523559570313	63.28482055664065	1047.356689453125	-1125.543823242188	-7.239279270172123	5.012444972991945	17.43775939941407	7.567451000213627	14.17987060546876	66.58351135253909	0	0	6.205107212066654	2.834309577941895	-10.21765804290772	6.305489063262943	3.273013830184938	1.918652415275575	5.642068386077883	0.8667657971382146	-4.867730617523195	18.91217422485352	0.7045894861221316	-1.412218928337098	11.24130249023438	0	0	11.23783493041993	-0.530987083911896	-0.6499212980270388	-1.266694307327271	0.530987083911896	0.6499212980270388	-1.266694307327271	-0.8671364784240727	-0.8752624988555913	-48.30515289306643	1.633680820465089	-3.381329298019411	-89.02488708496097	0	-0.03510406613349916	0	0	0.260471284389496	0	0	0.01363508962094784	0	0	-0.05838677287101748	0	0	-0.0346643589437008	0	0	0.008796964772045616	0	nan	nan	nan	nan	nan	nan	-0.01589361764490605	0.02050458453595639	-0.1186622679233552	0.004555447958409788	-0.008214420638978485	-0.1429006606340409	0.03396485000848772	0.5639355778694155	-0.1429674029350281	-0.07682592421770099	0.1741518676280976	-0.1373274475336075	0.1208010986447335	1.336615681648255	0.1232246309518815	0.06086851283907893	0.8374205827713017	-0.04101113975048067	nan	nan	nan	6.631732228662035e-16	-0.707297205924988	-20.05274772644044	1.437368642315805e-15	-1.053562045097352	-15.93222618103028	-4.504599571228029	-1.148955821990967	-21.49456405639649	-13.04764842987061	-1.298207879066468	71.95286560058597	-40.54162597656251	0.6580998897552492	-17.7313575744629	-12.12736511230469	30.75494384765626	15.85596466064454	
229	2.28	126.0993041992188	955.4346313476567	-1287.951049804688	126.0543441772462	958.2741088867192	-1416.846313476563	-2.826416015625001	955.0005493164067	-1287.915649414063	125.6661224365235	1084.3291015625	-1285.111450195313	10.80280303955078	554.9145507812502	-1430.454345703125	49.67902374267581	693.4072875976565	-1833.501464843751	-412.3320922851565	615.7319946289065	-1450.370361328125	61.63638305664065	955.2390747070317	-1287.994018554688	17.45562362670899	248.7756652832032	-1124.32421875	86.24127197265628	-38.13464355468751	-1412.737426757813	-389.3115234375002	195.7118377685548	-1168.549560546875	11.11618614196778	540.491149902344	-1416.031494140625	0.9767957925796513	141.8839874267579	-1236.611328125	4.18553400039673	312.4275817871095	-1371.948364257813	-216.7212829589845	146.2361145019532	-1236.288452148438	3.934695720672609	277.1889648437501	-1066.037963867188	-0.009168716147542003	96.78234100341803	-1293.469360351563	1.060365080833436	153.6302642822266	-1338.581665039063	-72.57518005371097	98.23302459716803	-1293.361694335938	0.9768224358558659	141.8840332031251	-1236.611450195313	169.3943176269532	531.117370605469	-1328.92041015625	153.1374053955079	572.9536132812502	-1753.569458007813	-256.7851867675782	550.606628417969	-1310.684814453125	190.5622253417969	955.6301269531255	-1287.907958984375	148.328598022461	97.10444641113287	-1232.404907226563	163.3725128173829	4.184379577636721	-1646.966308593751	-276.0422973632814	113.4622039794922	-1251.47119140625	168.4477844238282	511.616394042969	-1324.583740234375	171.2777709960938	79.46370697021487	-1385.441528320313	177.5771026611329	296.8636169433595	-1389.431518554688	-45.76974487304689	85.51203155517581	-1398.561645507813	158.2763214111329	83.82485198974612	-1168.346435546875	175.6116333007813	78.00994873046878	-1457.806640625	177.7114410400391	150.4766082763672	-1459.13671875	103.2624511718751	80.02608489990237	-1462.180053710938	171.2778015136719	79.46370697021487	-1385.441650390625	18.06858444213868	1053.146728515625	-1332.908935546875	233.4449157714845	1053.871826171875	-1332.968139648438	175.1537780761719	1049.44189453125	-1136.836059570313	-70.28872680664065	769.3828125000005	-1364.581665039063	-46.54502487182619	563.1571044921877	-1433.153564453125	-49.51980209350589	383.4105224609376	-1274.230834960938	-27.40214920043947	242.9238281250001	-1129.201171875	18.69284248352051	247.0089416503907	-1048.687622070313	10.144437789917	114.380973815918	-1229.90673828125	297.321746826172	803.9238281250005	-1306.941040039063	226.2828521728517	528.5158691406252	-1331.3544921875	235.8083648681642	371.6531372070314	-1290.767822265625	194.7473297119142	95.31518554687503	-1230.3193359375	146.8141784667969	64.61682891845706	-1156.890502929688	161.3728637695313	61.41798400878909	-1382.651611328125	62.4360046386719	1048.9814453125	-1141.024047851563	-6.998417854309086	5.32948160171509	18.3363151550293	8.544335365295414	13.51672077178956	64.59761047363284	0	0	6.587128162384037	2.832780599594117	-10.21146202087403	6.693660736083988	3.031909942626955	2.150259971618653	4.257957935333254	0.6870722174644472	-4.987934589385988	18.02204704284669	0.5942443013191225	-0.8981922864913945	11.51976013183594	0	0	11.51834487915039	-0.1925006657838823	-0.01999456807971001	-1.262082219123841	0.1925006657838823	0.01999456807971001	-1.262082219123841	-0.844452023506165	-0.778353333473206	-51.57730865478518	1.662442803382874	-3.426581144332888	-88.84912872314456	0	-0.04021719843149187	0	0	0.2625084221363069	0	0	0.01254040934145451	0	0	-0.06706641614437106	0	0	-0.03303906321525575	0	0	0.008957857266068462	0	nan	nan	nan	nan	nan	nan	-0.009569309651851658	0.01479190401732922	-0.1351502537727357	0.004279867745935919	-0.00638583488762379	-0.1424608975648881	0.03231992200016977	0.5620784759521487	-0.1319676637649537	-0.06855443120002749	0.2112824618816377	-0.1482414603233338	0.1224518716335297	1.324430823326111	0.1228593364357949	0.06935317069292071	0.8367373943328862	-0.04983173310756686	nan	nan	nan	2.9605948867408e-17	0.4819083213806155	-21.12053298950196	-1.761553879855798e-15	-0.959776103496552	-15.9346685409546	-4.010178565979006	-1.052476048469544	-20.84928131103516	-11.65901565551758	-0.1222531273961068	64.33850097656253	-39.52668380737306	0.5631831884384157	-21.85896301269532	-8.115735054016117	27.58543014526369	21.02335357666016	
230	2.29	126.5116043090821	956.5253295898442	-1302.742797851563	127.9053573608399	959.2827758789067	-1431.63232421875	-2.407005310058595	956.836791992188	-1304.130249023438	126.7932891845704	1085.421875	-1299.982177734375	12.13622760772706	559.2395019531252	-1451.792602539063	58.35866928100589	702.5730590820315	-1851.515869140626	-409.5645446777346	621.9979248046877	-1478.052368164063	62.05300903320315	956.702270507813	-1303.497436523438	18.49495506286622	237.1695556640626	-1162.385375976563	87.68170166015628	-33.97293090820314	-1465.649291992188	-388.2611389160159	186.4782104492188	-1209.860717773438	12.43576049804688	544.0675048828127	-1438.159057617188	2.219666719436646	137.0748748779297	-1280.7998046875	5.321288108825685	315.3145141601564	-1405.829711914063	-215.4834899902345	141.1534118652344	-1280.386108398438	4.900265693664553	262.0767211914064	-1102.53369140625	1.32613742351532	95.4075622558594	-1340.221923828125	2.360073566436768	154.8207397460938	-1381.898559570313	-71.24158477783206	96.76711273193365	-1340.084106445313	2.219640731811524	137.0748596191407	-1280.799926757813	169.5489196777344	530.795837402344	-1333.06494140625	156.3148193359376	562.5592041015627	-1758.900024414063	-256.9315795898439	551.1848754882815	-1318.289916992188	190.9702148437501	956.3486328125005	-1301.988403320313	148.2281951904297	97.29808807373053	-1233.0146484375	167.0686798095704	0.8451156616210942	-1646.911499023438	-276.2705078125001	112.8785018920899	-1255.968505859375	168.591537475586	511.3306884765627	-1328.572265625	171.2701110839844	79.20851898193362	-1385.984985351563	177.6309509277344	296.5942687988282	-1390.60009765625	-45.76733398437501	85.2773132324219	-1399.260986328125	158.1314697265626	84.20137786865237	-1168.911743164063	175.6496734619141	77.54425048828128	-1458.342651367188	177.7700195312501	150.0061798095704	-1459.880981445313	103.3038558959962	79.56724548339847	-1462.76806640625	171.2700653076172	79.20853424072268	-1385.984985351563	19.52341079711915	1054.831787109375	-1348.947021484375	234.9430389404298	1054.311401367188	-1346.628662109375	174.1956939697266	1050.548583984375	-1151.300659179688	-69.90887451171878	773.4636230468755	-1384.462890625	-45.1234474182129	567.7609863281252	-1455.358032226563	-48.44268035888675	379.6197814941407	-1305.018432617188	-26.35595512390138	231.5800628662111	-1167.6201171875	19.62846374511719	230.9561309814454	-1086.83837890625	11.42070674896241	109.3368606567383	-1275.6328125	297.2940979003907	803.9949340820317	-1316.656860351563	226.4498138427736	528.0755004882815	-1335.0361328125	235.8351287841798	371.676971435547	-1292.967041015625	194.6292114257814	95.59501647949222	-1230.505615234375	146.8013305664063	64.83982086181643	-1156.977172851563	161.3265686035157	61.26155090332034	-1382.78369140625	61.58078384399417	1050.33154296875	-1156.553344726563	-6.796342849731449	5.624670982360842	19.16036605834962	9.48870944976807	12.70293903350831	62.31143188476565	0	0	6.913057327270511	2.826614141464234	-10.18647193908692	7.024306774139408	2.780759096145631	2.403184652328492	2.919564247131349	0.5216812491416933	-5.087936878204347	17.14484214782716	0.4908429086208346	-0.4163767993450167	11.81288433074952	0	0	11.81256008148194	0.1251733154058457	0.6194173693656924	-1.22692608833313	-0.1251733154058457	-0.6194173693656924	-1.22692608833313	-0.8162429928779606	-0.7053779959678652	-54.96149826049808	1.678723096847535	-3.462770700454714	-88.68239593505862	0	-0.04110400006175043	0	0	0.2593173384666444	0	0	0.01133935246616602	0	0	-0.07536052167415622	0	0	-0.0313696749508381	0	0	0.009207762777805332	0	nan	nan	nan	nan	nan	nan	-0.002881294582039119	0.009839644655585292	-0.1543100476264954	0.003996484912931921	-0.004643269814550878	-0.1419259607791901	0.03067341633141042	0.5601374506950381	-0.1208979338407517	-0.0603401064872742	0.2553624510765077	-0.1602103263139725	0.1209808140993119	1.313101410865784	0.1270152479410172	0.0763073414564133	0.8455876708030705	-0.05392868816852572	nan	nan	nan	-9.473903372872764e-17	1.643777132034303	-22.61401557922364	-7.13503338256903e-16	-0.8352911472320561	-15.8816032409668	-3.710410833358766	-0.9271272420883183	-20.26612091064454	-9.897578239440922	1.012882828712464	57.3266410827637	-38.07819747924806	0.5606408119201662	-26.46559906005861	-4.461615085601808	24.29333877563478	23.8717212677002	
231	2.3	126.879867553711	957.2391967773442	-1317.519897460938	129.6960449218751	959.8090209960942	-1446.390014648438	-2.012374877929688	958.238159179688	-1320.316650390625	127.8226394653321	1086.13623046875	-1314.928955078125	13.4892978668213	562.9335937500002	-1472.269775390625	66.87693023681643	710.2620849609377	-1868.786499023438	-406.6719970703127	627.6484375000002	-1504.795654296875	62.4352951049805	957.759887695313	-1318.979248046875	19.62759971618653	225.0305633544923	-1201.321655273438	88.67424774169925	-28.78050231933595	-1519.4169921875	-387.2760009765627	177.3332977294922	-1251.587158203125	13.77838325500489	547.0198364257815	-1459.50927734375	3.472299575805666	132.3110504150391	-1325.611206054688	6.460332393646244	317.8287353515626	-1439.566162109375	-214.2343750000001	136.1769256591797	-1325.026123046875	5.994006156921388	246.2396545410157	-1140.0703125	2.631733179092408	94.33485412597659	-1387.458251953125	3.627682447433473	156.1740875244141	-1425.443237304688	-69.93715667724612	95.62344360351565	-1387.26318359375	3.47233295440674	132.3109893798829	-1325.611328125	169.6593017578126	530.3948974609377	-1337.259643554688	159.2520141601563	552.1423339843752	-1763.979003906251	-257.0643310546876	551.5093994140627	-1325.776123046875	191.3244934082032	956.7182617187505	-1316.060791015625	148.1408691406251	97.47373962402349	-1233.614501953125	170.5986022949219	-2.55339813232422	-1646.760131835938	-276.4440917968751	112.1988754272462	-1260.259155273438	168.6936798095704	510.967224121094	-1332.608642578125	171.2589874267579	78.96186828613284	-1386.522705078125	177.6348419189454	296.3336181640626	-1391.73291015625	-45.77137756347658	85.006462097168	-1399.925048828125	158.0110168457032	84.55292510986331	-1169.470703125	175.6749725341797	77.09818267822268	-1458.873413085938	177.8002471923829	149.5554809570313	-1460.610107421875	103.331527709961	79.1130294799805	-1463.3408203125	171.2590026855469	78.96186065673831	-1386.522705078125	20.89803504943848	1056.052001953125	-1365.02294921875	236.3403930664064	1054.38232421875	-1360.348266601563	173.2289123535157	1051.400390625	-1165.859375	-69.48524475097659	776.9987792968755	-1403.904052734375	-43.66767883300783	571.7370605468752	-1476.6943359375	-47.34492111206056	375.2929077148439	-1335.75439453125	-25.22664833068849	219.7727355957032	-1206.862426757813	20.70158767700196	214.2703399658204	-1126.171264648438	12.70176792144776	104.4308547973633	-1322.024658203125	297.2500915527345	803.8804321289067	-1326.433471679688	226.5690917968751	527.5789794921877	-1338.791137695313	235.8327636718751	371.6748046875001	-1295.234741210938	194.5217895507814	95.86518859863284	-1230.703735351563	146.7919006347657	65.05360412597659	-1157.057983398438	161.280990600586	61.11228942871097	-1382.915893554688	60.72933578491214	1051.417602539063	-1172.131225585938	-6.626340866088871	5.913178443908693	19.91877174377442	10.37495517730713	11.69520950317383	59.72742080688479	0	0	7.181336879730228	2.809328317642213	-10.11639595031739	7.295361995697025	2.523247003555299	2.661822557449342	1.639833569526673	0.3704979419708253	-5.184432029724123	16.28676795959473	0.3914070725440981	0.04701841622591021	12.12369632720948	0	0	12.12368106842042	0.418960750102997	1.251647591590882	-1.151527047157288	-0.418960750102997	-1.251647591590882	-1.151527047157288	-0.7863394021987919	-0.663565516471863	-58.44861984252933	1.682744026184083	-3.491626024246218	-88.52444458007815	0	-0.03801641240715982	0	0	0.2506019473075868	0	0	0.009814238175749782	0	0	-0.0827029570937157	0	0	-0.03014345094561578	0	0	0.009537337347865108	0	nan	nan	nan	nan	nan	nan	0.003942230250686409	0.005184192210435869	-0.1760776340961457	0.003708021482452752	-0.003345037577673795	-0.1413984149694443	0.02910916693508626	0.558324456214905	-0.1100907772779465	-0.05290454253554347	0.3076808154582978	-0.173585593700409	0.1173180267214776	1.302578449249268	0.1357538104057313	0.08219791203737262	0.8652571439743046	-0.04943333938717845	nan	nan	nan	1.894780674574553e-16	2.764408111572267	-24.48491859436037	-8.489505769073253e-16	-0.6825414896011355	-15.79431247711182	-3.597004175186159	-0.7755131721496586	-20.08343505859376	-7.94224834442139	2.096876621246339	50.55593490600589	-36.48526763916017	0.6470766663551333	-31.42097282409669	-1.064651966094971	20.95542526245118	23.98891830444337	
